<?xml version="1.0" encoding="utf-8"?>
<!-- Generator: Adobe Illustrator 25.4.1, SVG Export Plug-In . SVG Version: 6.00 Build 0)  -->
<svg version="1.1" id="Lager_1" xmlns="http://www.w3.org/2000/svg" xmlns:xlink="http://www.w3.org/1999/xlink" x="0px" y="0px"
	 viewBox="0 0 250 100" style="enable-background:new 0 0 250 100;" xml:space="preserve">
<style type="text/css">
	.st0{fill:#FFFFFF;}
	.st1{fill:#F9B233;}
</style>
<g>
	<path class="st0" d="M22.97,44.28c-1.89,0-3.18,0.23-3.86,0.7c-0.69,0.46-1.03,1.05-1.03,1.75c0,0.64,0.29,1.14,0.86,1.51
		c0.58,0.37,1.54,0.63,2.88,0.79l4.13,0.53c3.01,0.38,5.2,1.17,6.58,2.35c1.38,1.18,2.06,2.8,2.06,4.85c0,2.53-0.98,4.57-2.95,6.12
		c-1.97,1.55-4.89,2.33-8.76,2.33c-1.82,0-3.45-0.14-4.87-0.43c-1.42-0.29-2.64-0.62-3.65-0.98c-1.01-0.37-1.81-0.72-2.4-1.06
		c-0.59-0.34-0.95-0.57-1.08-0.7l2.59-4.56c0.1,0.1,0.39,0.28,0.89,0.55c0.5,0.27,1.15,0.57,1.97,0.89c0.82,0.32,1.78,0.6,2.88,0.84
		c1.1,0.24,2.31,0.36,3.62,0.36c1.7,0,2.9-0.2,3.62-0.6c0.72-0.4,1.08-0.98,1.08-1.75c0-0.74-0.3-1.29-0.89-1.66
		c-0.59-0.37-1.64-0.65-3.14-0.84l-3.17-0.38c-1.38-0.16-2.62-0.42-3.72-0.77c-1.1-0.35-2.04-0.82-2.81-1.42
		c-0.77-0.59-1.36-1.32-1.78-2.18c-0.42-0.86-0.62-1.9-0.62-3.12c0-1.09,0.2-2.12,0.6-3.1c0.4-0.98,1.03-1.82,1.9-2.54
		c0.86-0.72,2-1.3,3.41-1.73c1.41-0.43,3.12-0.65,5.14-0.65c2.24,0,4.05,0.16,5.42,0.48c1.38,0.32,2.34,0.61,2.88,0.86
		c1.73,0.74,2.59,1.74,2.59,3.02c0,0.83-0.22,1.5-0.67,2.02c-0.45,0.51-0.91,0.91-1.39,1.2c-0.06-0.06-0.27-0.24-0.62-0.53
		c-0.35-0.29-0.86-0.59-1.54-0.91c-0.67-0.32-1.52-0.61-2.54-0.86C25.54,44.41,24.34,44.28,22.97,44.28z"/>
	<path class="st0" d="M56.38,42.94c0.35-0.83,0.78-1.52,1.3-2.06c0.51-0.54,1.38-0.82,2.59-0.82c1.02,0,1.84,0.19,2.45,0.58
		c0.61,0.38,0.98,0.66,1.1,0.82c-0.22,0.77-0.54,1.69-0.96,2.76c-0.42,1.07-0.88,2.21-1.39,3.41c-0.51,1.2-1.03,2.41-1.56,3.62
		c-0.53,1.22-1.02,2.34-1.46,3.36c-0.93,2.11-1.88,4.16-2.86,6.14c-0.98,1.98-2.06,4-3.24,6.05c-0.54,0.96-1.12,1.88-1.73,2.76
		c-0.61,0.88-1.31,1.66-2.11,2.35c-0.8,0.69-1.7,1.23-2.71,1.63c-1.01,0.4-2.18,0.6-3.53,0.6c-0.8,0-1.54-0.06-2.23-0.19
		c-0.69-0.13-1.28-0.27-1.78-0.43c-0.5-0.16-0.9-0.31-1.22-0.46c-0.32-0.14-0.5-0.25-0.53-0.31l1.92-4.75
		c0.19,0.1,0.62,0.24,1.27,0.43c0.66,0.19,1.32,0.29,1.99,0.29c0.99,0,1.84-0.28,2.54-0.84c0.7-0.56,1.39-1.46,2.06-2.71l1.44-2.74
		c-0.54-0.9-1.14-1.9-1.8-3c-0.66-1.1-1.31-2.23-1.97-3.38c-0.66-1.15-1.3-2.29-1.94-3.41s-1.22-2.14-1.73-3.05
		c-0.51-0.91-0.94-1.69-1.3-2.33c-0.35-0.64-0.58-1.06-0.67-1.25c-0.26-0.51-0.46-0.98-0.62-1.42c-0.16-0.43-0.24-0.92-0.24-1.46
		c0-0.38,0.06-0.76,0.17-1.13c0.11-0.37,0.3-0.7,0.58-0.98c0.27-0.29,0.62-0.52,1.06-0.7c0.43-0.18,0.98-0.26,1.66-0.26
		c0.96,0,1.67,0.1,2.14,0.29c0.46,0.19,0.71,0.3,0.74,0.34c0.1,0.26,0.39,0.91,0.89,1.97c0.5,1.06,1.09,2.3,1.78,3.74
		c0.69,1.44,1.44,2.98,2.26,4.61c0.82,1.63,1.61,3.15,2.38,4.56c0.61-1.34,1.19-2.7,1.75-4.06c0.56-1.36,1.08-2.62,1.56-3.77
		c0.48-1.15,0.89-2.15,1.22-3C55.97,43.89,56.22,43.29,56.38,42.94z"/>
	<path class="st0" d="M84.65,64.54V50.76c0-3.97-1.84-5.95-5.52-5.95c-1.34,0-2.38,0.11-3.12,0.34c-0.74,0.22-1.26,0.42-1.58,0.58
		v18.82H67.7V41.54c0.13-0.06,0.51-0.22,1.15-0.48c0.64-0.26,1.46-0.52,2.47-0.79c1.01-0.27,2.19-0.51,3.55-0.72
		c1.36-0.21,2.84-0.31,4.44-0.31c1.79,0,3.43,0.22,4.92,0.67c1.49,0.45,2.76,1.1,3.82,1.97c1.06,0.86,1.87,1.93,2.45,3.19
		c0.58,1.26,0.86,2.71,0.86,4.34v15.12H84.65z"/>
	<path class="st0" d="M121.51,48.7c0,0.99-0.14,1.89-0.41,2.69c-0.27,0.8-0.7,1.48-1.3,2.04c-0.59,0.56-1.38,0.99-2.35,1.3
		c-0.98,0.3-2.18,0.46-3.62,0.46h-9.6c0.29,1.31,1.06,2.42,2.3,3.34c1.25,0.91,2.9,1.37,4.94,1.37c2.05,0,3.62-0.15,4.73-0.46
		s1.78-0.52,2.04-0.65l1.82,4.75c-0.06,0.06-0.34,0.19-0.82,0.38s-1.13,0.39-1.94,0.6c-0.82,0.21-1.78,0.4-2.9,0.58
		s-2.37,0.26-3.74,0.26c-1.92,0-3.69-0.26-5.3-0.77c-1.62-0.51-3.02-1.3-4.22-2.35c-1.2-1.06-2.14-2.38-2.81-3.98
		c-0.67-1.6-1.01-3.49-1.01-5.66c0-2.02,0.31-3.84,0.94-5.47c0.62-1.63,1.5-3.03,2.64-4.2c1.14-1.17,2.5-2.07,4.1-2.71
		c1.6-0.64,3.38-0.96,5.33-0.96c1.82,0,3.43,0.25,4.82,0.74s2.56,1.18,3.5,2.04c0.94,0.86,1.66,1.87,2.14,3.02
		C121.27,46.2,121.51,47.42,121.51,48.7z M115.18,48.12c0-0.45-0.09-0.93-0.26-1.44c-0.18-0.51-0.46-0.98-0.84-1.39
		c-0.38-0.42-0.9-0.76-1.54-1.03c-0.64-0.27-1.42-0.41-2.35-0.41c-1.02,0-1.92,0.22-2.69,0.67c-0.77,0.45-1.41,1.01-1.92,1.68
		c-0.51,0.67-0.9,1.41-1.15,2.21c-0.26,0.8-0.38,1.57-0.38,2.3h8.59c1.06,0,1.74-0.22,2.06-0.65
		C115.02,49.63,115.18,48.98,115.18,48.12z"/>
	<path class="st0" d="M138.7,44.81c-1.34,0-2.38,0.14-3.12,0.41c-0.74,0.27-1.25,0.49-1.54,0.65v18.67h-6.72V42.17
		c0.13-0.1,0.48-0.3,1.06-0.62c0.58-0.32,1.34-0.65,2.28-0.98c0.94-0.34,2.04-0.64,3.29-0.91c1.25-0.27,2.61-0.41,4.08-0.41
		c0.9,0,1.74,0.06,2.54,0.19c0.8,0.13,1.5,0.32,2.11,0.58c0.61,0.26,1.09,0.59,1.44,1.01c0.35,0.42,0.53,0.93,0.53,1.54
		c0,0.9-0.18,1.6-0.53,2.11c-0.35,0.51-0.66,0.9-0.91,1.15c-0.1-0.1-0.3-0.2-0.62-0.31c-0.32-0.11-0.69-0.22-1.1-0.34
		c-0.42-0.11-0.87-0.2-1.37-0.26C139.61,44.84,139.14,44.81,138.7,44.81z"/>
	<path class="st0" d="M171.77,51.43c0,1.82-0.36,3.39-1.08,4.7c-0.72,1.31-1.74,2.5-3.05,3.55c0.9,0.48,1.62,1.02,2.16,1.61
		c0.54,0.59,0.96,1.18,1.25,1.75s0.48,1.13,0.58,1.66s0.14,0.98,0.14,1.37c0,1.31-0.3,2.49-0.89,3.53
		c-0.59,1.04-1.43,1.94-2.52,2.69c-1.09,0.75-2.38,1.33-3.86,1.73c-1.49,0.4-3.11,0.6-4.87,0.6c-1.98,0-3.7-0.14-5.16-0.41
		c-1.46-0.27-2.67-0.58-3.65-0.94c-0.98-0.35-1.72-0.68-2.23-0.98c-0.51-0.3-0.83-0.5-0.96-0.6l2.54-4.8
		c0.13,0.1,0.41,0.28,0.84,0.55c0.43,0.27,1.01,0.55,1.73,0.84s1.58,0.54,2.59,0.77s2.14,0.34,3.38,0.34c1.82,0,3.25-0.32,4.27-0.96
		c1.02-0.64,1.54-1.58,1.54-2.83c0-0.58-0.18-1.15-0.55-1.73s-0.95-1.04-1.75-1.39c-0.13,0.03-0.33,0.07-0.6,0.1
		c-0.27,0.03-0.56,0.06-0.86,0.1c-0.3,0.03-0.6,0.06-0.89,0.07c-0.29,0.02-0.51,0.02-0.67,0.02c-1.82,0-3.5-0.29-5.04-0.86
		c-1.54-0.58-2.85-1.38-3.94-2.42c-1.09-1.04-1.94-2.28-2.54-3.72c-0.61-1.44-0.91-3.02-0.91-4.75c0-1.73,0.31-3.31,0.94-4.75
		s1.5-2.68,2.62-3.72c1.12-1.04,2.43-1.85,3.94-2.42c1.5-0.58,3.15-0.86,4.94-0.86c1.66,0,3.23,0.27,4.7,0.82h7.68
		c1.15,0,1.93,0.22,2.33,0.67c0.4,0.45,0.6,1.06,0.6,1.82c0,0.61-0.1,1.21-0.29,1.8c-0.19,0.59-0.34,0.97-0.43,1.13l-4.51-0.43
		c0.48,0.45,0.88,0.95,1.2,1.51c0.32,0.56,0.58,1.14,0.77,1.73c0.19,0.59,0.33,1.17,0.41,1.73
		C171.73,50.58,171.77,51.05,171.77,51.43z M165.05,51c0-2.02-0.53-3.62-1.58-4.82c-1.06-1.2-2.48-1.8-4.27-1.8
		c-1.79,0-3.22,0.61-4.27,1.82c-1.06,1.22-1.58,2.82-1.58,4.8c0,1.99,0.53,3.58,1.58,4.8c1.06,1.22,2.48,1.82,4.27,1.82
		c1.79,0,3.22-0.61,4.27-1.82C164.52,54.58,165.05,52.99,165.05,51z"/>
	<path class="st0" d="M179.54,42.94c0-1.09,0.32-1.84,0.96-2.26c0.64-0.42,1.49-0.62,2.54-0.62c0.74,0,1.42,0.08,2.04,0.24
		c0.62,0.16,1.02,0.27,1.18,0.34v23.9h-6.72V42.94z"/>
	<path class="st0" d="M194.42,45.53c-1.09,0-1.85-0.24-2.28-0.72c-0.43-0.48-0.65-1.15-0.65-2.02c0-0.67,0.1-1.26,0.29-1.75
		c0.19-0.5,0.32-0.82,0.38-0.98h19.78c1.02,0,1.84,0.26,2.45,0.79c0.61,0.53,0.91,1.34,0.91,2.42c0,0.7-0.16,1.33-0.48,1.87
		c-0.32,0.54-0.86,1.23-1.63,2.06c-0.26,0.26-0.73,0.71-1.42,1.37c-0.69,0.66-1.48,1.4-2.38,2.23c-0.9,0.83-1.85,1.71-2.86,2.64
		c-1.01,0.93-1.94,1.79-2.81,2.59c-0.86,0.8-1.6,1.48-2.21,2.04c-0.61,0.56-0.98,0.89-1.1,0.98h14.98v5.47h-23.9v-5.42
		c0.16-0.13,0.59-0.51,1.3-1.15c0.7-0.64,1.55-1.42,2.54-2.33c0.99-0.91,2.07-1.9,3.24-2.98c1.17-1.07,2.27-2.09,3.31-3.05
		c1.04-0.96,1.95-1.81,2.74-2.54c0.78-0.74,1.32-1.25,1.61-1.54H194.42z"/>
	<path class="st0" d="M243.19,48.7c0,0.99-0.14,1.89-0.41,2.69c-0.27,0.8-0.7,1.48-1.3,2.04s-1.38,0.99-2.35,1.3
		c-0.98,0.3-2.18,0.46-3.62,0.46h-9.6c0.29,1.31,1.06,2.42,2.3,3.34s2.9,1.37,4.94,1.37s3.62-0.15,4.73-0.46
		c1.1-0.3,1.78-0.52,2.04-0.65l1.82,4.75c-0.06,0.06-0.34,0.19-0.82,0.38c-0.48,0.19-1.13,0.39-1.94,0.6
		c-0.82,0.21-1.78,0.4-2.9,0.58c-1.12,0.18-2.37,0.26-3.74,0.26c-1.92,0-3.69-0.26-5.3-0.77c-1.62-0.51-3.02-1.3-4.22-2.35
		c-1.2-1.06-2.14-2.38-2.81-3.98c-0.67-1.6-1.01-3.49-1.01-5.66c0-2.02,0.31-3.84,0.94-5.47c0.62-1.63,1.5-3.03,2.64-4.2
		c1.14-1.17,2.5-2.07,4.1-2.71c1.6-0.64,3.38-0.96,5.33-0.96c1.82,0,3.43,0.25,4.82,0.74c1.39,0.5,2.56,1.18,3.5,2.04
		c0.94,0.86,1.66,1.87,2.14,3.02C242.95,46.2,243.19,47.42,243.19,48.7z M236.85,48.12c0-0.45-0.09-0.93-0.26-1.44
		c-0.18-0.51-0.46-0.98-0.84-1.39c-0.38-0.42-0.9-0.76-1.54-1.03c-0.64-0.27-1.42-0.41-2.35-0.41c-1.02,0-1.92,0.22-2.69,0.67
		c-0.77,0.45-1.41,1.01-1.92,1.68c-0.51,0.67-0.9,1.41-1.15,2.21c-0.26,0.8-0.38,1.57-0.38,2.3h8.59c1.06,0,1.74-0.22,2.06-0.65
		C236.69,49.63,236.85,48.98,236.85,48.12z"/>
</g>
<polygon class="st1" points="181.67,24.08 187.42,24.08 185.42,29 190.33,29 182.33,38.08 183.5,32.75 178.92,32.42 "/>
</svg>
